PathFileType	4	(X/Y/Z)	Patient4_TMGait_0pt4_03_left_31.trc.trc
DataRate	CameraRate	NumFrames	NumMarkers	Units	OrigDataRate	OrigDataStartFrame	OrigNumFrames
73.298429319372	73.298429319372	4	33	mm	73.298429319372	106	       141
Frame#	Time	Sacral			L.Shoulder			Chest			R.Shoulder			Neck			R.ASIS			L.ASIS			R.Thigh.Superior			R.Thigh.Lateral			R.Thigh.Inferior			R.Patella			L.Thigh.Superior			L.Thigh.Lateral			L.Thigh.Inferior			L.Patella			L.Shank.Superior			L.Shank.Lateral			L.Shank.Inferior			R.Shank.Superior			R.Shank.Lateral			R.Shank.Inferior			R.Heel			R.Midfoot.Superior			R.Midfoot.Lateral			R.Toe			L.Heel			L.Midfoot.Lateral			L.Midfoot.Superior			L.Toe			L.Elbow			L.Wrist			R.Elbow			R.Wrist			
		X1	Y1	Z1	X2	Y2	Z2	X3	Y3	Z3	X4	Y4	Z4	X5	Y5	Z5	X6	Y6	Z6	X7	Y7	Z7	X8	Y8	Z8	X9	Y9	Z9	X10	Y10	Z10	X11	Y11	Z11	X12	Y12	Z12	X13	Y13	Z13	X14	Y14	Z14	X15	Y15	Z15	X16	Y16	Z16	X17	Y17	Z17	X18	Y18	Z18	X19	Y19	Z19	X20	Y20	Z20	X21	Y21	Z21	X22	Y22	Z22	X23	Y23	Z23	X24	Y24	Z24	X25	Y25	Z25	X26	Y26	Z26	X27	Y27	Z27	X28	Y28	Z28	X29	Y29	Z29	X30	Y30	Z30	X31	Y31	Z31	X32	Y32	Z32	X33	Y33	Z33	

106	42.272500000000	855.391654575705	1008.752059189456	517.443524102250	1007.520136293865	1438.409750106569	324.703995906073	1130.648596339558	1371.242090058461	471.996384315194	1069.497081396354	1441.723203156307	656.185346666897	1006.179506130011	1499.469268566622	483.726368065619	1092.783939232483	944.599480670171	612.605654288391	1054.364281847187	970.847255088981	341.191638514036	1115.036184208324	739.152440849586	582.389777285242	1028.430367689925	634.313468751990	646.407344602113	1098.431275004173	578.234377639190	564.139958650306	1092.591591143360	493.871955652257	570.082330882982	1140.700157340986	792.713969089225	355.281817791368	1094.777575686818	666.010605098551	272.762245172414	1205.030752790604	608.652435623071	321.471092078136	1226.239715286762	527.958524423312	309.459765633078	1180.996310145258	452.863019998647	302.312316676182	1060.860726465727	366.336862785277	257.694190124745	1099.958495238889	238.138227330505	303.899970668244	1064.461829268160	405.242887720524	576.212138620767	992.802602421962	300.593684922274	636.751489970259	1035.617333200216	207.048415706310	570.230942953485	903.542189029372	41.879913992252	535.843124948182	1073.804004980333	96.720703112918	571.893424445293	986.746881968281	36.672871669564	611.025546347673	1194.687071970102	46.492063800133	598.822474842138	951.444536251238	106.356526009918	347.214124687883	1014.263708864726	89.718172413614	260.622890172556	1110.153924717116	135.226837403627	277.936322903570	1220.610794651789	62.887846365211	235.854038214764	936.481775639943	1086.732821747838	226.239772557857	983.682611801410	829.092679035390	210.073621195952	1137.394088131017	1107.608871866991	790.474478652355	1374.173829484786	1024.404423385611	737.139896567361	
107	42.286142857143	854.530607449992	1009.262836607583	518.345882722890	1006.556851737810	1438.562265813325	325.497317529934	1130.589009265439	1370.879270625359	471.790949426496	1071.003362882574	1441.403282647543	656.506751905521	1006.480718199158	1499.437391414172	484.411079500866	1092.080258345191	944.308918578376	612.488894179840	1052.828171455852	970.818681872811	341.177224960239	1112.325650076622	738.556993701497	582.120299251575	1025.253425581008	634.250644746025	646.684917020915	1094.291170757375	577.726306348051	564.185413219625	1087.931386673257	493.616557763615	570.320530794853	1138.030629452176	792.224427633818	355.258306458986	1092.038097374895	665.781243058630	272.391205753470	1201.501271155347	608.015564328859	322.107253580342	1223.654394938641	529.350850434220	309.974503751988	1182.183140448500	454.260124170401	301.791660411262	1068.037088302965	361.084305873887	255.679644728921	1114.920404635837	235.010860821382	301.022953990946	1059.504453751118	405.048478276281	576.351358656533	987.746179119237	300.507362516218	636.898061892542	1030.335576590058	206.949282363122	570.336466069601	898.011385460085	41.852527160243	535.882008935323	1068.318769730901	96.710852633872	571.928951742659	981.237443976012	36.649536170943	611.065942986093	1189.170354485340	46.502233974189	598.844955992333	974.992423675832	93.985881011100	342.897643928545	1038.894234359521	81.869277743562	256.299275369588	1131.887408292506	132.802834715499	274.191413622165	1246.538484071278	67.540588095528	231.824535265745	928.474918045941	1088.300126360092	228.128704858401	967.974973491961	829.346523909854	214.456848345229	1144.568511931610	1108.793125752204	790.045674353629	1384.116473353081	1038.134006965983	732.894984928674	
108	42.299785714286	853.669573934653	1009.679986731866	519.024659129118	1005.746151856563	1438.636996736842	326.079989014100	1130.583397248818	1370.411014611312	471.434877297268	1072.461569584716	1440.959497981386	656.637146358029	1006.837773707088	1499.310608779417	484.893484956326	1091.394798871168	943.966298330506	612.244836661982	1051.363352632552	970.619012476088	340.997869119971	1109.741330203593	737.938024265538	581.726548390141	1022.246437249947	634.145392804608	646.854815978779	1090.284683534261	577.215515303199	564.097250875445	1083.376493413827	493.321114994651	570.426695982057	1135.090732278901	791.191868054842	355.180163132371	1088.759662629250	665.131369331102	271.947128842910	1197.296719884266	606.711641182607	322.826678061103	1220.306732168814	530.240787380722	310.687058539306	1182.689826325258	455.472226046485	301.390058799928	1075.092567799174	355.910872679071	253.554569133161	1129.631847394485	232.495331757518	298.220103690780	1054.673319967978	404.812949322905	576.387451413422	982.806426538635	300.407104601381	636.996741209945	1025.099944939266	206.817726711834	570.376087766491	892.476921706157	41.823689909089	535.911281068898	1062.823329344308	96.687672526026	571.942611171105	975.728325300284	36.625485485120	611.102513445714	1183.654146381499	46.509563957136	598.866129782949	998.804367939240	82.823958977166	338.509538266142	1063.745365042877	75.052185571865	252.056299077289	1153.563055527618	131.192666437935	270.609926669672	1272.060846770290	72.974627254632	228.340027324063	920.760599022084	1089.945925844922	229.842398727908	953.169501840693	829.991930000910	218.811122901920	1151.454295749957	1109.897711968652	789.338139163630	1393.037110650213	1051.698184560883	728.515633516627	
109	42.313428571429	852.832680916946	1010.009478415526	519.493557397275	1005.087601643212	1438.650190065505	326.438384500000	1130.624151213782	1369.863291392493	470.926165276918	1073.846542446398	1440.424000379668	656.567098315685	1007.239707236384	1499.107838434655	485.167479182415	1090.746340566820	943.588291374841	611.873873261051	1049.969156114492	970.278035197340	340.656077101045	1107.307601692844	737.300901402744	581.235057581830	1019.396842752231	634.008577201252	646.909573498269	1086.417337171996	576.704131793898	563.885978519607	1078.922810397881	492.989672220086	570.395798021694	1131.931261956641	789.707498389882	355.026307747920	1085.006818638075	664.137025568705	271.421077237368	1192.576561221370	604.885386326718	323.505575019059	1216.358828681830	530.715952898581	311.489048559549	1182.594496442936	456.555090199073	301.066455075413	1081.914132674026	351.003579574064	251.414590079247	1143.830268586704	230.714837923542	295.595301454238	1049.967982090522	404.547975323310	576.324219608244	977.970738381618	300.307019803486	637.045355154827	1019.908022705392	206.662529247724	570.355200320888	886.942186230732	41.794254168401	535.935625584397	1057.317025806887	96.652721121405	571.937379703653	970.219842407233	36.601176184744	611.136530196828	1178.138425401780	46.513481592235	598.886942281865	1022.393464245729	73.191010723515	334.308304658270	1088.313335909207	69.426380063972	248.134738979496	1174.778360147781	130.457984497083	267.335376032599	1296.715727020570	79.057476910820	225.546197149334	913.405230699826	1091.651122231069	231.399639449131	939.263600888495	830.948665341420	223.086309598147	1158.049137165865	1110.938657687458	788.346674109972	1400.958678499495	1064.985355056653	724.045135535920	
